<?xml version="1.0" encoding="UTF-8"?>
<svg width="123px" height="30px" viewBox="0 0 123 30" version="1.1" xmlns="http://www.w3.org/2000/svg" xmlns:xlink="http://www.w3.org/1999/xlink">
    <!-- Generator: Sketch 41.1 (35376) - http://www.bohemiancoding.com/sketch -->
    <title>properlylockup</title>
    <desc>Created with Sketch.</desc>
    <defs>
        <polyline id="path-1" points="0 30 122.119655 30 122.119655 0.0303448276 0 0.0303448276"></polyline>
    </defs>
    <g id="Symbols" stroke="none" stroke-width="1" fill="none" fill-rule="evenodd">
        <g id="properlylockup">
            <g>
                <g id="Group-3">
                    <mask id="mask-2" fill="white">
                        <use xlink:href="#path-1"></use>
                    </mask>
                    <g id="Clip-2"></g>
                    <path d="M100.927931,3.66655172 C96.08,8.51413793 96.0793103,16.3737931 100.927931,21.222069 L109.705517,30 L112.631724,27.0741379 L103.854138,18.2958621 C100.622759,15.0637931 100.621379,9.82448276 103.853448,6.59241379 C107.086207,3.36 112.326552,3.36034483 115.557241,6.59241379 C118.78931,9.8237931 118.78931,15.0641379 115.557241,18.2962069 C114.49069,19.3634483 113.316552,19.9568966 111.842414,20.4327586 L115.557241,24.147931 L118.483793,21.222069 C123.331379,16.3737931 123.331379,8.51413793 118.483793,3.6662069 C113.635172,-1.18172414 105.776207,-1.18206897 100.927931,3.66655172" id="Fill-1" fill="#FF5722" mask="url(#mask-2)"></path>
                </g>
                <path d="M112.631724,15.37 C114.247241,13.7548276 114.247931,11.1334483 112.631034,9.51758621 C111.016552,7.90172414 108.395517,7.90206897 106.780345,9.51793103 C105.164138,11.1341379 105.164138,13.7544828 106.780345,15.37 C108.395517,16.9862069 111.015862,16.9862069 112.631724,15.37" id="Fill-4" fill="#FF5722"></path>
                <path d="M9.21448276,17.5868966 L9.21448276,17.3993103 C9.21448276,14.9141379 7.99517241,13.6948276 6.28344828,13.6948276 C4.50172414,13.6948276 3.28241379,14.9372414 3.28241379,17.3993103 L3.28241379,17.5868966 C3.28241379,20.0486207 4.45482759,21.2441379 6.30689655,21.2441379 C8.18275862,21.2441379 9.21448276,19.9782759 9.21448276,17.5868966 L9.21448276,17.5868966 Z M0,11.3734483 L3.39965517,11.3734483 L3.39965517,13.2962069 C4.07965517,12.1237931 5.51,11.0924138 7.31517241,11.0924138 C10.3162069,11.0924138 12.6606897,13.3196552 12.6606897,17.3758621 L12.6606897,17.5634483 C12.6606897,21.6193103 10.3631034,23.8937931 7.31517241,23.8937931 C5.41586207,23.8937931 4.03241379,22.9558621 3.39965517,21.7603448 L3.39965517,27.8093103 L0,27.8093103 L0,11.3734483 L0,11.3734483 Z" id="Fill-5" fill="#333D46"></path>
                <path d="M13.9986207,11.3734483 L17.3982759,11.3734483 L17.3982759,13.7182759 C18.1717241,12.0768966 19.3675862,11.2096552 21.3603448,11.1862069 L21.3603448,14.3510345 C18.8517241,14.327931 17.3982759,15.1486207 17.3982759,17.4927586 L17.3982759,23.6358621 L13.9986207,23.6358621 L13.9986207,11.3734483" id="Fill-6" fill="#333D46"></path>
                <path d="M31.3724138,17.5868966 L31.3724138,17.4224138 C31.3724138,15.0782759 30.2703448,13.6710345 28.3710345,13.6710345 C26.4955172,13.6710345 25.37,15.0313793 25.37,17.3758621 L25.37,17.5634483 C25.37,19.907931 26.4486207,21.3148276 28.3710345,21.3148276 C30.2703448,21.3148276 31.3724138,19.907931 31.3724138,17.5868966 L31.3724138,17.5868966 Z M21.9003448,17.6337931 L21.9003448,17.4462069 C21.9003448,13.6006897 24.6903448,11.0924138 28.3710345,11.0924138 C32.0524138,11.0924138 34.8189655,13.5541379 34.8189655,17.3758621 L34.8189655,17.5634483 C34.8189655,21.4317241 32.0289655,23.8937931 28.347931,23.8937931 C24.6903448,23.8937931 21.9003448,21.4555172 21.9003448,17.6337931 L21.9003448,17.6337931 Z" id="Fill-7" fill="#333D46"></path>
                <path d="M45.1368966,17.5868966 L45.1368966,17.3993103 C45.1368966,14.9141379 43.9172414,13.6948276 42.2062069,13.6948276 C40.4241379,13.6948276 39.2048276,14.9372414 39.2048276,17.3993103 L39.2048276,17.5868966 C39.2048276,20.0486207 40.3772414,21.2441379 42.2293103,21.2441379 C44.1048276,21.2441379 45.1368966,19.9782759 45.1368966,17.5868966 L45.1368966,17.5868966 Z M35.9224138,11.3734483 L39.322069,11.3734483 L39.322069,13.2962069 C40.002069,12.1237931 41.432069,11.0924138 43.2375862,11.0924138 C46.2386207,11.0924138 48.5834483,13.3196552 48.5834483,17.3758621 L48.5834483,17.5634483 C48.5834483,21.6193103 46.2855172,23.8937931 43.2375862,23.8937931 C41.3382759,23.8937931 39.9551724,22.9558621 39.322069,21.7603448 L39.322069,27.8093103 L35.9224138,27.8093103 L35.9224138,11.3734483 L35.9224138,11.3734483 Z" id="Fill-8" fill="#333D46"></path>
                <path d="M58.3848276,16.18 C58.2675862,14.327931 57.3296552,13.4368966 55.712069,13.4368966 C54.1882759,13.4368966 53.1562069,14.4451724 52.8982759,16.18 L58.3848276,16.18 L58.3848276,16.18 Z M49.4048276,17.6572414 L49.4048276,17.4696552 C49.4048276,13.6006897 52.1482759,11.0924138 55.712069,11.0924138 C58.8768966,11.0924138 61.6906897,12.9444828 61.6906897,17.3289655 L61.6906897,18.2668966 L52.8517241,18.2668966 C52.9451724,20.3065517 54.0472414,21.4786207 55.8993103,21.4786207 C57.4703448,21.4786207 58.2441379,20.7986207 58.4551724,19.7672414 L61.6672414,19.7672414 C61.2686207,22.4168966 59.1586207,23.8937931 55.8058621,23.8937931 C52.1013793,23.8937931 49.4048276,21.5727586 49.4048276,17.6572414 L49.4048276,17.6572414 Z" id="Fill-9" fill="#333D46"></path>
                <path d="M62.9813793,11.3734483 L66.3810345,11.3734483 L66.3810345,13.7182759 C67.1544828,12.0768966 68.3503448,11.2096552 70.3431034,11.1862069 L70.3431034,14.3510345 C67.8344828,14.327931 66.3810345,15.1486207 66.3810345,17.4927586 L66.3810345,23.6358621 L62.9813793,23.6358621 L62.9813793,11.3734483" id="Fill-10" fill="#333D46"></path>
                <polygon id="Fill-11" fill="#333D46" points="71.7272414 5.81689655 75.1034483 5.81689655 75.1034483 23.6358621 71.7272414 23.6358621"></polygon>
                <polyline id="Fill-12" fill="#333D46" points="80.9655172 22.3931034 76.0886207 11.3734483 79.7462069 11.3734483 82.7237931 18.7355172 85.4672414 11.3734483 88.7262069 11.3734483 82.0910345 27.8093103 78.8082759 27.8093103 80.9655172 22.3931034"></polyline>
            </g>
        </g>
    </g>
</svg>