<svg version="1.1" id="Layer_1" xmlns="http://www.w3.org/2000/svg" xmlns:xlink="http://www.w3.org/1999/xlink" x="0px" y="0px" viewBox="0 0 2214.221 769.621">
                <path fill="#0c4b87" d="M231.167,523.815c-40.467-51.045-55.318-109.33-41.822-164.117c10.038-40.742,35.526-71.966,73.715-90.294
                    c1.778-0.855,3.615-1.591,5.432-2.377L183,193.901C110.022,235.89,62.12,306.364,62.12,386.257
                    c0,128.709,124.279,233.059,277.602,233.059c8.516,0,16.904-0.432,25.223-1.071C311.315,598.1,264.297,565.599,231.167,523.815z
                     M418.679,268.497c49.572,22.984,84.382,70.542,86.631,118.327c1.473,31.352-9.852,75.787-68.411,116.519
                    c32.629,5.245,73.243,2.505,107.277-13.83c33.415-16.03,54.807-42.215,63.578-77.82c12.071-49.012-1.522-101.541-38.296-147.921
                    c-39.092-49.297-98.967-84.833-166.032-100.853c-21.353-4.42-43.64-6.817-66.613-6.817c-50.584,0-97.965,11.413-138.806,31.264
                    l87.937,75.218C333.865,248.558,387.327,253.961,418.679,268.497z M470.608,521.525c-28.592,0-55.2-5.451-73.911-14.124
                    c-49.572-22.984-84.391-70.542-86.641-118.336c-1.473-31.352,9.861-75.787,68.421-116.519
                    c-32.619-5.255-73.243-2.514-107.277,13.829c-33.415,16.03-54.807,42.215-63.588,77.83c-12.071,49.002,1.532,101.541,38.296,147.921
                    c38.709,48.816,97.808,84.136,164.088,100.382c21.333,4.41,43.61,6.807,66.564,6.807c57.577,0,111.058-14.723,155.405-39.917
                    l-84.607-72.369C522.94,517.174,495.998,521.525,470.608,521.525z M476.556,153.201c-8.329,0-16.54,0.422-24.693,1.021
                    c54.228,20.106,101.816,52.804,135.24,94.95c40.467,51.045,55.318,109.33,41.822,164.117c-9.085,36.872-30.861,65.906-63.205,84.686
                    l83.026,71.014c64.187-42.687,105.411-108.642,105.411-182.73C754.158,257.541,629.869,153.201,476.556,153.201z"></path>
                <path fill="#0c4b87" d="M903.768,358.635c0-19.615,23.141-27.659,41.734-27.659c39.74,0,59.856,20.116,59.856,20.116l29.172-43.757
                    c0,0-30.684-29.162-89.027-29.162c-50.78,0-101.58,30.674-101.58,80.964c0,74.933,107.621,74.432,107.621,107.12
                    c0,18.613-22.129,27.659-41.744,27.659c-42.746,0-68.391-25.645-68.391-25.645l-33.199,41.233c0,0,37.717,37.216,101.59,37.216
                    c58.333,0,102.091-32.688,102.091-80.463C1011.889,389.811,903.768,389.811,903.768,358.635z M1186.925,278.171
                    c-79.962,0-158.411,65.877-158.411,154.894c0,68.391,52.293,113.661,125.713,113.661c79.461,0,158.931-65.386,158.931-155.405
                    C1313.158,323.932,1260.856,278.171,1186.925,278.171z M1155.239,492.41c-36.214,0-62.36-24.143-62.36-62.36
                    c0-56.33,47.775-97.573,93.536-97.573c36.214,0,61.859,25.154,61.859,62.871C1248.274,452.179,1201,492.41,1155.239,492.41z
                     M1389.617,467.261c0-4.528,1.513-13.574,3.015-20.617l50.8-263.026h-63.863l-52.813,273.083
                    c-2.004,10.058-3.015,18.613-3.015,25.645c0,47.775,33.199,60.858,67.389,60.858c9.056,0,18.112-1.513,18.112-1.513l11.06-55.819
                    c0,0-4.027,0.501-9.056,0.501C1400.687,486.375,1389.617,483.86,1389.617,467.261z M1631.537,278.171
                    c-44.759,0-83.488,30.173-97.573,54.306h-0.992c0,0,4.007-12.562,6.522-25.135l4.538-23.141h-61.859l-49.798,256.484h63.873
                    l22.129-115.665c9.056-46.773,47.274-88.517,91.532-88.517c20.116,0,32.187,9.557,32.187,31.185c0,6.532-1.503,15.087-3.015,23.632
                    l-29.172,149.364h63.863l30.685-159.422c2.013-11.06,4.528-23.632,4.528-33.189C1708.985,298.788,1676.798,278.171,1631.537,278.171
                    z M1869.939,278.171c-85.501,0-148.363,71.407-148.363,158.411c0,61.859,44.769,110.145,124.721,110.145
                    c56.84,0,100.087-33.7,100.087-33.7l-17.1-48.786c0,0-38.218,28.17-79.461,28.17s-63.362-25.645-63.362-58.343
                    c0-3.015,0-6.031,0.501-9.547h176.522c0,0,9.046-27.158,9.046-49.287C1972.531,318.402,1938.831,278.171,1869.939,278.171z
                     M1908.668,380.763H1797.01c12.582-31.686,39.239-53.304,71.917-53.304c24.143,0,40.732,15.588,40.732,42.245
                    C1909.66,375.233,1908.668,380.763,1908.668,380.763z M2083.701,338.518h58.844l9.557-50.79h-58.844l14.586-73.43h-61.359
                    l-14.586,73.43h-34.701l-9.557,50.79h32.698l-20.115,102.592c-1.503,8.545-3.025,17.1-3.025,24.143
                    c0,59.846,44.769,77.948,91.031,77.948c9.056,0,18.603-1.513,18.603-1.513l11.07-55.819c0,0-6.031,1.012-14.085,1.012
                    c-19.104,0-40.231-5.039-40.231-34.201c0-4.027,0.501-12.572,2.013-20.617L2083.701,338.518z"></path>
            </svg>
